PathFileType	4	(X/Y/Z)	/Users/itak/Documents/Research/Walk-IL/dataset/trc/00303_00010.trc
DataRate	CameraRate	NumFrames	NumMarkers	Units	OrigDataRate	OrigDataStartFrame	OrigNumFrames
100.000000	100.000000	4	56	mm	100.000000	148	396
Frame#	Time	RPSI			LPSI			L3			STRN			T10			C7			CLAV			RBAK			LBAK			LSHO			LUPA			LAEL			LAOL			LWTS			LWPS			LFRA			LIFD			LHPS			LHTS			RSHO			RUPA			RAEL			RAOL			RWTS			RWPS			RFRA			RIFD			RBHD			LFHD			RFHD			LBHD			LHIP			RHIP			RASI			LASI			LKNE			LTHI			LANK			LTIP			LTOE			LMT1			LMT5			LHEE			RKNE			RTHI			RTIP			RTOE			RMT1			RMT5			RHEE			RHPS			RHTS			RANK			*53			*54			*55			
		X1	Y1	Z1	X2	Y2	Z2	X3	Y3	Z3	X4	Y4	Z4	X5	Y5	Z5	X6	Y6	Z6	X7	Y7	Z7	X8	Y8	Z8	X9	Y9	Z9	X10	Y10	Z10	X11	Y11	Z11	X12	Y12	Z12	X13	Y13	Z13	X14	Y14	Z14	X15	Y15	Z15	X16	Y16	Z16	X17	Y17	Z17	X18	Y18	Z18	X19	Y19	Z19	X20	Y20	Z20	X21	Y21	Z21	X22	Y22	Z22	X23	Y23	Z23	X24	Y24	Z24	X25	Y25	Z25	X26	Y26	Z26	X27	Y27	Z27	X28	Y28	Z28	X29	Y29	Z29	X30	Y30	Z30	X31	Y31	Z31	X32	Y32	Z32	X33	Y33	Z33	X34	Y34	Z34	X35	Y35	Z35	X36	Y36	Z36	X37	Y37	Z37	X38	Y38	Z38	X39	Y39	Z39	X40	Y40	Z40	X41	Y41	Z41	X42	Y42	Z42	X43	Y43	Z43	X44	Y44	Z44	X45	Y45	Z45	X46	Y46	Z46	X47	Y47	Z47	X48	Y48	Z48	X49	Y49	Z49	X50	Y50	Z50	X51	Y51	Z51	X52	Y52	Z52	X53	Y53	Z53	X54	Y54	Z54	X55	Y55	Z55	X56	Y56	Z56	

149	1.48	39.28034973144531	980.8930053710938	385.6534118652344	-79.29315948486328	981.574951171875	256.0570373535156	-1.076212406158447	1053.433715820312	312.1201782226562	160.1876373291016	1229.018188476562	129.3501129150391	-6.807001113891602	1165.742553710938	329.6426086425781	1.829538226127625	1409.688842773438	284.6328125	110.7621459960938	1328.988891601562	169.9869537353516	32.70232009887695	1276.782836914062	375.3880920410156	-87.16521453857422	1368.065307617188	231.533203125	-70.753173828125	1372.605712890625	127.7062072753906	-144.8168792724609	1253.37109375	111.0175476074219	-159.3174133300781	1051.974365234375	112.8621139526367	-143.1194915771484	1042.19921875	197.6440582275391	-76.18009948730469	832.5094604492188	74.47128295898438	-148.1895446777344	818.8584594726562	71.94976806640625	-160.2853546142578	947.9461059570312	99.47084045410156	-74.21223449707031	647.6116333007812	73.61909484863281	-142.0068511962891	730.5804443359375	71.87561798095703	-80.61447906494141	733.2394409179688	46.99654388427734	168.2134552001953	1396.241455078125	333.061279296875	217.5837860107422	1338.4130859375	378.908447265625	285.8209838867188	1078.422729492188	409.7809448242188	196.2072601318359	1057.203369140625	383.5599670410156	335.953369140625	890.1063842773438	253.8565521240234	377.2538757324219	876.4080810546875	327.2254333496094	320.2638549804688	1019.004150390625	384.9942321777344	370.5158081054688	713.7589111328125	206.8079376220703	78.37254333496094	1561.626098632812	323.1672058105469	41.94411468505859	1623.504638671875	121.9081497192383	124.6693572998047	1626.079711914062	165.4769134521484	-50.8153190612793	1548.760864257812	252.0565490722656	-87.76425933837891	938.9503173828125	131.4434204101562	181.1437377929688	925.2926635742188	393.3468627929688	216.6220703125	928.4066772460938	265.5602722167969	42.05360412597656	942.116455078125	84.72148132324219	67.00935363769531	476.92236328125	92.02584075927734	13.37247467041016	613.724853515625	83.46320343017578	57.89086151123047	45.11517333984375	198.6533660888672	60.01863861083984	245.6761932373047	136.2505340576172	251.0838775634766	34.77088928222656	99.62837982177734	225.1779327392578	27.29572105407715	177.0876159667969	139.0530395507812	40.64287185668945	105.7825317382812	66.54790496826172	38.70177841186523	273.0760498046875	245.0979766845703	466.7569580078125	329.7330627441406	237.8700714111328	722.1264038085938	346.9792785644531	192.9636993408203	369.3303527832031	371.8452758789062	-14.15933132171631	46.97404479980469	480.4024963378906	-54.21109390258789	103.5574493408203	468.3466491699219	-1.454781889915466	119.009147644043	573.414306640625	-74.00748443603516	270.6800537109375	557.8253784179688	406.1294250488281	775.5411987304688	280.1351623535156	384.7351379394531	788.1964721679688	213.3558197021484	-27.69186592102051	222.3103485107422	581.5221557617188	nan	nan	nan	nan	nan	nan	nan	nan	nan	
150	1.49	46.38615798950195	981.3164672851562	380.5844421386719	-73.79942321777344	982.0628662109375	252.2964477539062	4.762296676635742	1054.021850585938	307.0498046875	165.5688934326172	1229.7958984375	123.475212097168	-0.9279497861862183	1166.637084960938	324.5744018554688	8.157558441162109	1410.6650390625	279.59912109375	116.4686279296875	1329.690551757812	164.5573272705078	39.09487915039062	1277.556640625	370.2318420410156	-81.2489013671875	1369.37939453125	226.666748046875	-64.92128753662109	1373.806274414062	122.7941284179688	-138.5474700927734	1254.466918945312	104.8570327758789	-151.4687957763672	1052.878295898438	103.6522979736328	-137.9071655273438	1042.478515625	188.8773803710938	-66.08427429199219	835.2939453125	64.27189636230469	-137.5189666748047	820.9094848632812	59.74443054199219	-150.9526214599609	949.3680419921875	88.96955108642578	-61.3753547668457	650.7222900390625	58.6673583984375	-130.2380218505859	732.7794799804688	57.75300216674805	-68.58358764648438	736.91015625	34.09464645385742	174.79443359375	1396.603637695312	327.2740173339844	224.1582183837891	1338.506103515625	372.8140869140625	290.9522705078125	1078.182373046875	403.1011352539062	201.0593872070312	1057.505493164062	377.6234130859375	337.7840576171875	884.8505859375	252.3097229003906	379.1785583496094	872.8576049804688	325.8771057128906	324.5461730957031	1017.819580078125	379.5815734863281	368.792236328125	706.3426513671875	211.0825958251953	85.06118011474609	1562.271362304688	317.6121215820312	47.26438522338867	1624.39111328125	116.7057952880859	130.2555999755859	1626.9921875	159.7104034423828	-44.50947952270508	1549.345947265625	247.3769226074219	-83.34648132324219	939.0347900390625	127.8194808959961	188.5091094970703	926.2365112304688	386.2056579589844	220.9433441162109	928.6478271484375	258.8661193847656	45.43069839477539	942.7760620117188	79.11817932128906	68.54786682128906	476.5498352050781	90.08090972900391	15.86750602722168	613.66259765625	80.85565185546875	57.9745979309082	45.17514038085938	198.6873168945312	60.6921272277832	245.5865936279297	135.5237274169922	251.1264801025391	34.71649551391602	99.54367065429688	225.1885528564453	27.33002471923828	177.0650329589844	139.0510101318359	40.61314392089844	105.7524871826172	66.63506317138672	38.98067092895508	273.1118469238281	260.0050659179688	469.8134765625	312.9324340820312	247.4955291748047	724.4185180664062	336.260498046875	209.4444885253906	371.242919921875	354.5709838867188	12.10933208465576	48.35720062255859	461.5730590820312	-30.56636428833008	103.2359313964844	451.4947204589844	23.20734977722168	118.1794204711914	556.1858520507812	-54.42295837402344	267.7115783691406	545.3252563476562	405.9799499511719	769.9405517578125	282.0020141601562	384.3586730957031	780.7227172851562	214.9902496337891	-6.588101863861084	219.9351654052734	567.341796875	nan	nan	nan	nan	nan	nan	nan	nan	nan	
151	1.5	53.57673263549805	981.7706298828125	375.6405944824219	-68.25422668457031	982.5210571289062	248.7001037597656	10.56767272949219	1054.5908203125	302.0545349121094	170.7329559326172	1230.655639648438	117.5657119750977	4.905619144439697	1167.502685546875	319.5712890625	14.37916374206543	1411.609008789062	274.6849060058594	122.0080795288086	1330.482055664062	159.1784362792969	45.41511535644531	1278.306518554688	365.1302795410156	-75.46308135986328	1370.677856445312	221.9392547607422	-59.2579345703125	1375.067138671875	118.0201950073242	-132.4634552001953	1255.714477539062	98.77426147460938	-143.7964477539062	1054.013427734375	94.36391448974609	-132.9978332519531	1042.85986328125	179.9584197998047	-56.25711822509766	838.2523193359375	54.2928352355957	-127.0086517333984	823.2559814453125	47.41321563720703	-141.8548889160156	951.0464477539062	78.32132720947266	-48.77659606933594	654.1648559570312	44.00110244750977	-118.632942199707	735.2951049804688	43.56889724731445	-56.71034240722656	740.8544921875	21.42190170288086	181.2642211914062	1396.979736328125	321.5542602539062	230.6105499267578	1338.613525390625	366.7826843261719	295.6694641113281	1077.936401367188	396.6642150878906	205.5686492919922	1057.902465820312	371.6812133789062	339.5724487304688	879.9063720703125	251.11376953125	380.8872985839844	869.6072387695312	324.9453735351562	328.4542541503906	1016.708618164062	374.4857177734375	367.3795166015625	699.50390625	215.8449096679688	91.73865509033203	1563.002197265625	312.1055603027344	52.61373519897461	1625.216064453125	111.5077743530273	135.8747863769531	1627.80712890625	153.9410552978516	-38.26381301879883	1550.06982421875	242.750244140625	-79.55059051513672	938.7862548828125	124.9274978637695	195.9324493408203	927.2486572265625	379.0850219726562	225.7375183105469	929.343017578125	251.7989807128906	48.73371887207031	943.4384765625	73.63764190673828	69.97471618652344	476.2088012695312	88.21187591552734	18.2989444732666	613.6231079101562	78.37891387939453	58.04456329345703	45.23801040649414	198.702392578125	61.30151748657227	245.537109375	134.8296813964844	251.1570129394531	34.66193771362305	99.45783233642578	225.2009429931641	27.37721252441406	177.0348663330078	139.0363616943359	40.5756950378418	105.7061538696289	66.70584106445312	39.28890228271484	273.1336669921875	274.2670288085938	473.1107482910156	295.9734802246094	257.0162963867188	726.8070068359375	325.3193664550781	225.4991149902344	373.1212768554688	337.0504150390625	39.09953689575195	49.31193161010742	441.4992980957031	-6.339118957519531	102.1864395141602	433.7093505859375	48.71694183349609	116.4346084594727	537.8974609375	-34.45380401611328	263.2978820800781	532.6625366210938	405.8485412597656	764.8528442382812	284.4028625488281	384.1646118164062	773.7431640625	217.1427764892578	15.08310794830322	216.2938690185547	552.6566162109375	nan	nan	nan	nan	nan	nan	nan	nan	nan	
152	1.51	60.86724090576172	982.2498779296875	370.8243408203125	-62.64310455322266	982.9526977539062	245.2674560546875	16.34404563903809	1055.118041992188	297.1343078613281	175.6803741455078	1231.58154296875	111.6219253540039	10.70037937164307	1168.322998046875	314.6230773925781	20.4862174987793	1412.503784179688	269.8715209960938	127.3845596313477	1331.3486328125	153.8378295898438	51.64928817749023	1279.013671875	360.0614929199219	-69.80564117431641	1371.938354492188	217.3373870849609	-53.76618576049805	1376.369262695312	113.3761901855469	-126.5763931274414	1257.102294921875	92.79606628417969	-136.4026489257812	1055.376220703125	85.11943817138672	-128.3047485351562	1043.336547851562	170.9801025390625	-46.69248580932617	841.3844604492188	44.51311492919922	-116.6852951049805	825.902099609375	35.00521469116211	-133.09375	952.9574584960938	67.63484191894531	-36.46762084960938	657.8973999023438	29.63983345031738	-107.2135009765625	738.1239624023438	29.36172676086426	-45.01197814941406	745.041015625	8.999351501464844	187.6101837158203	1397.361450195312	315.9006652832031	236.9277496337891	1338.730102539062	360.8188781738281	299.99072265625	1077.691650390625	390.5071716308594	209.7523040771484	1058.3779296875	365.7522583007812	341.3363647460938	875.2860717773438	250.2328796386719	382.3890686035156	866.6526489257812	324.4060363769531	332.0126037597656	1015.676330566406	369.7217102050781	366.2983093261719	693.2694091796875	220.96533203125	98.39882659912109	1563.789672851562	306.6459045410156	57.98149490356445	1625.984252929688	106.3203811645508	141.5187377929688	1628.518310546875	148.1742095947266	-32.0717658996582	1550.923950195312	238.1847686767578	-76.35745239257812	938.35791015625	122.7024688720703	203.4079284667969	928.2855834960938	371.9762268066406	231.1698303222656	930.6170043945312	244.2105712890625	51.95608139038086	944.1046752929688	68.28829956054688	71.32395935058594	475.8992614746094	86.39539337158203	20.68420791625977	613.6080932617188	76.01957702636719	58.10688781738281	45.31037902832031	198.7019500732422	61.8887939453125	245.5318145751953	134.1440124511719	251.1757507324219	34.60725402832031	99.36777496337891	225.2180023193359	27.43796348571777	176.9955291748047	139.0144653320312	40.53317260742188	105.6480102539062	66.75742340087891	39.62485504150391	273.1420593261719	287.81591796875	476.5687561035156	278.9273681640625	266.3916015625	729.2457885742188	314.1973571777344	241.0764770507812	374.9299621582031	319.3362731933594	66.47542572021484	49.88409423828125	420.2260437011719	18.27519416809082	100.4933242797852	415.0342102050781	74.94548034667969	113.8454284667969	518.5236206054688	-14.00590229034424	257.4666748046875	519.8271484375	405.7442321777344	760.2864379882812	287.2575988769531	384.1730041503906	767.2821044921875	219.7320404052734	37.37683486938477	211.4402160644531	537.4235229492188	nan	nan	nan	nan	nan	nan	nan	nan	nan	
